<?xml version="1.0" standalone="no"?>
<!DOCTYPE svg PUBLIC "-//W3C//DTD SVG 20010904//EN"
 "http://www.w3.org/TR/2001/REC-SVG-20010904/DTD/svg10.dtd">
<svg version="1.0" xmlns="http://www.w3.org/2000/svg"
 width="512.000000pt" height="512.000000pt" viewBox="0 0 512.000000 512.000000"
 preserveAspectRatio="xMidYMid meet">
<metadata>
Created by potrace 1.11, written by Peter Selinger 2001-2013
</metadata>
<g transform="translate(0.000000,512.000000) scale(0.100000,-0.100000)"
fill="#000000" stroke="none">
<path d="M2460 3811 c-120 -39 -212 -132 -251 -251 -38 -121 4 -274 102 -367
36 -33 115 -77 162 -88 l27 -7 0 -344 c0 -329 -1 -344 -19 -354 -11 -5 -31
-10 -44 -10 -62 0 -214 -64 -299 -127 -32 -23 -52 -32 -62 -26 -8 4 -123 113
-255 242 -151 146 -241 241 -241 253 0 10 8 33 17 51 9 18 22 61 28 97 22 128
-17 243 -109 328 -74 67 -143 92 -254 92 -75 0 -95 -4 -149 -29 -78 -37 -141
-99 -179 -177 -26 -52 -29 -70 -29 -149 0 -100 15 -149 70 -220 42 -56 72 -80
135 -112 49 -25 66 -28 155 -28 89 0 106 3 156 28 31 15 60 27 66 27 5 0 123
-110 261 -246 179 -175 249 -250 245 -261 -3 -9 -21 -38 -39 -64 -47 -71 -93
-198 -105 -292 -6 -45 -16 -85 -22 -89 -7 -4 -170 -8 -363 -8 l-352 0 -22 60
c-46 122 -137 203 -265 235 -193 48 -387 -72 -441 -273 -41 -155 51 -339 203
-409 70 -32 180 -42 250 -23 122 34 210 117 258 242 15 40 22 48 49 52 17 3
674 7 1459 9 l1428 5 13 -22 c8 -11 17 -34 20 -50 10 -41 67 -127 107 -160 19
-16 59 -41 89 -55 47 -22 69 -26 150 -26 87 0 101 3 161 32 82 41 141 103 181
191 27 59 30 74 26 146 -4 97 -38 173 -106 242 -51 52 -100 79 -184 100 -71
19 -132 14 -214 -17 -75 -28 -175 -125 -199 -194 -10 -27 -23 -55 -29 -62 -8
-9 -102 -13 -369 -13 -198 -1 -361 1 -363 3 -3 2 -9 38 -14 78 -13 112 -60
234 -121 321 -10 14 -19 34 -19 45 0 21 478 503 499 503 8 0 39 -12 70 -27 49
-25 68 -28 151 -28 106 0 153 15 225 69 55 43 70 61 107 136 30 59 33 73 33
155 -1 78 -4 98 -30 150 -33 69 -107 144 -173 176 -71 35 -212 39 -293 9 -70
-27 -148 -92 -186 -158 -55 -93 -60 -230 -13 -334 11 -23 20 -48 20 -55 0 -15
-488 -503 -503 -503 -5 0 -31 16 -58 34 -96 69 -192 109 -312 129 l-72 12 -3
346 -2 347 27 7 c52 13 133 56 167 90 147 142 155 359 19 505 -77 84 -142 113
-258 117 -49 1 -101 -1 -115 -6z m227 -131 c180 -110 173 -355 -13 -446 -48
-23 -63 -26 -127 -22 -79 5 -102 15 -161 68 -75 69 -99 191 -55 285 26 55 97
120 147 134 61 17 164 7 209 -19z m-1314 -510 c52 -25 66 -36 101 -82 116
-154 19 -371 -176 -394 -217 -25 -363 212 -240 391 29 41 93 91 127 98 58 12
148 6 188 -13z m2647 -16 c152 -101 156 -311 9 -417 -71 -51 -188 -58 -270
-16 -54 27 -106 93 -125 158 -14 47 -14 64 -4 106 21 87 73 153 145 187 32 15
57 18 121 15 69 -3 86 -7 124 -33z m-3216 -1289 c192 -50 259 -277 123 -417
-121 -125 -319 -98 -407 55 -24 42 -30 64 -30 114 0 126 76 220 205 253 44 11
45 11 109 -5z m3723 -22 c158 -74 187 -283 57 -403 -106 -97 -261 -92 -362 13
-43 44 -76 138 -67 191 14 89 74 174 144 204 87 37 142 36 228 -5z"/>
</g>
</svg>
